<?xml version="1.0" standalone="no"?>
<!DOCTYPE svg PUBLIC "-//W3C//DTD SVG 20010904//EN"
 "http://www.w3.org/TR/2001/REC-SVG-20010904/DTD/svg10.dtd">
<svg version="1.0" xmlns="http://www.w3.org/2000/svg"
 width="1147.000000pt" height="982.000000pt" viewBox="0 0 1147.000000 982.000000"
 preserveAspectRatio="xMidYMid meet">

<g transform="translate(0.000000,982.000000) scale(0.100000,-0.100000)"
fill="#000000" stroke="none">
<path d="M23 9658 c24 -603 125 -1495 242 -2139 193 -1063 462 -1893 804
-2487 l71 -123 -45 -75 c-266 -437 -513 -1101 -691 -1855 -201 -854 -344
-1935 -387 -2922 l-2 -57 1208 0 1207 0 0 78 c0 100 26 535 45 772 59 707 153
1337 276 1849 42 177 117 442 128 452 3 4 53 -22 111 -57 150 -91 566 -298
760 -378 482 -198 1123 -363 1548 -399 l52 -4 0 1013 0 1014 -22 4 c-13 2 -66
12 -118 21 -266 48 -626 193 -882 356 -107 69 -258 179 -258 188 0 13 183 142
302 214 279 167 594 290 868 336 l105 18 3 1016 2 1017 -47 -6 c-181 -21 -369
-50 -493 -75 -637 -131 -1308 -392 -1843 -716 -59 -35 -89 -49 -92 -40 -110
302 -246 959 -325 1567 -55 425 -120 1229 -120 1493 l0 87 -1207 0 -1206 0 6
-162z"/>
<path d="M9050 9743 c0 -101 -26 -536 -45 -773 -61 -734 -162 -1400 -291
-1910 -54 -216 -109 -396 -121 -393 -5 1 -65 35 -134 76 -138 82 -425 229
-589 302 -509 227 -1188 413 -1652 453 l-88 8 0 -1012 c0 -956 1 -1013 18
-1017 9 -3 40 -8 67 -12 177 -23 492 -128 710 -238 157 -78 485 -292 485 -316
0 -11 -152 -121 -264 -191 -276 -173 -645 -319 -912 -360 -43 -7 -85 -14 -91
-16 -10 -3 -13 -215 -13 -1018 l0 -1016 48 6 c813 93 1575 348 2289 765 73 42
135 74 137 71 10 -18 80 -266 121 -432 160 -649 290 -1675 321 -2532 l7 -188
1204 0 1203 0 0 78 c0 157 -47 768 -85 1112 -176 1569 -508 2806 -964 3598
l-71 123 45 75 c230 379 449 932 614 1551 245 920 415 2107 464 3226 l2 57
-1207 0 -1208 0 0 -77z"/>
</g>
</svg>
